<svg id="Group" xmlns="http://www.w3.org/2000/svg" width="100%" height="100%" viewBox="0 0 150 150">
  <circle id="Oval" cx="75" cy="75" r="75" fill="#8d9ca8" opacity="0.333"/>
  <path id="XMLID_3_" d="M44.35,109.3l-4.937-5.062C26.365,101.644,15.052,91.646,7.856,79.7L4.177,84.569a2.293,2.293,0,0,1-2.8.715A2.4,2.4,0,0,1,.041,82.661L3.461,64.111A2.383,2.383,0,0,1,4.8,62.374a2.279,2.279,0,0,1,2.155.134l15.774,9.746a2.416,2.416,0,0,1,1.02,2.768,2.33,2.33,0,0,1-2.385,1.664l-6.161-.44c5.882,8.1,14.738,11.43,24.893,12.282V35.456H35.026A4.8,4.8,0,0,1,32.1,36.463a5.042,5.042,0,0,1,0-10.082,4.8,4.8,0,0,1,2.923,1.007H40.1V20.1a11.032,11.032,0,0,1-4.8-9.132,10.7,10.7,0,1,1,21.4,0A11.032,11.032,0,0,1,51.9,20.1v7.289h5.07A4.8,4.8,0,0,1,59.9,26.38a5.043,5.043,0,0,1,0,10.083,4.792,4.792,0,0,1-2.92-1.006H51.9v53.07c10.157-.852,19.011-4.178,24.894-12.282l-6.161.441a2.332,2.332,0,0,1-2.386-1.664,2.418,2.418,0,0,1,1.02-2.768l15.774-9.747a2.283,2.283,0,0,1,2.156-.133,2.378,2.378,0,0,1,1.339,1.737l3.421,18.551a2.4,2.4,0,0,1-1.336,2.624,2.292,2.292,0,0,1-2.8-.715L84.143,79.7c-7.195,11.941-18.509,21.941-31.558,24.534L47.648,109.3a2.293,2.293,0,0,1-3.3,0Z" transform="translate(81.782 5) rotate(45)" fill="#0e3757"/>
  <circle id="Oval_2" data-name="Oval 2" cx="19.5" cy="19.5" r="19.5" transform="translate(111)" fill="#f56a75"/>
  <text id="_1" data-name="1" transform="translate(124 29)" fill="#fff" font-size="24" font-family="Roboto-Medium, Roboto" font-weight="500"><tspan x="0" y="0">1</tspan></text>
</svg>
