<svg xmlns="http://www.w3.org/2000/svg" width="100%" height="100%" viewBox="0 0 120 50"><path d="M20.246,49.682l-2.254-2.3C12.036,46.2,6.872,41.657,3.587,36.229L1.907,38.441a1.051,1.051,0,0,1-1.279.325,1.09,1.09,0,0,1-.609-1.193L1.58,29.141a1.083,1.083,0,0,1,.611-.789,1.047,1.047,0,0,1,.985.06l7.2,4.431a1.1,1.1,0,0,1,.465,1.258,1.064,1.064,0,0,1-1.089.756l-2.813-.2c2.686,3.683,6.728,5.195,11.365,5.583V16.116H15.99a2.192,2.192,0,0,1-1.334.457,2.292,2.292,0,0,1,0-4.583,2.2,2.2,0,0,1,1.335.458h2.315V9.136a5.007,5.007,0,0,1-2.191-4.151,4.885,4.885,0,1,1,9.769,0,5.008,5.008,0,0,1-2.19,4.151v3.313h2.315a2.2,2.2,0,0,1,1.335-.458,2.292,2.292,0,0,1,0,4.583,2.192,2.192,0,0,1-1.334-.457H23.694V40.24c4.637-.388,8.679-1.9,11.364-5.584l-2.812.2a1.064,1.064,0,0,1-1.089-.756,1.1,1.1,0,0,1,.465-1.258l7.2-4.431a1.046,1.046,0,0,1,.984-.06,1.082,1.082,0,0,1,.612.789l1.561,8.432a1.09,1.09,0,0,1-.609,1.193,1.05,1.05,0,0,1-1.279-.325l-1.68-2.211c-3.284,5.428-8.45,9.973-14.406,11.152l-2.255,2.3a1.05,1.05,0,0,1-1.506,0Z" fill="#f56a75"/><path d="M56.165,21.615a6.459,6.459,0,0,1-5.011-2.057,7.6,7.6,0,0,1-1.867-5.285v-.546A7.891,7.891,0,0,1,51.14,8.374a5.883,5.883,0,0,1,4.606-2.112h.035a5.808,5.808,0,0,1,4.587,1.812,7.129,7.129,0,0,1,1.592,4.861v1.955H52.733l-.028.068a4.678,4.678,0,0,0,1.032,2.884,3.277,3.277,0,0,0,2.632,1.121,7.14,7.14,0,0,0,2.3-.328,7.544,7.544,0,0,0,1.846-.943l1.067,2.174a6.919,6.919,0,0,1-2.215,1.245A9.316,9.316,0,0,1,56.165,21.615ZM55.781,8.928a2.5,2.5,0,0,0-2.023.977,4.839,4.839,0,0,0-.985,2.481l.028.068h5.864v-.342a3.554,3.554,0,0,0-.717-2.3A2.632,2.632,0,0,0,55.781,8.928ZM39.1,21.615a5.053,5.053,0,0,1-4.238-1.983,8.378,8.378,0,0,1-1.517-5.209v-.287a9.8,9.8,0,0,1,1.517-5.708,4.929,4.929,0,0,1,4.266-2.167,4.682,4.682,0,0,1,2.153.486A4.89,4.89,0,0,1,42.93,8.135V0h3.322V21.328H43.463L43.135,19.5a4.917,4.917,0,0,1-1.709,1.58A4.836,4.836,0,0,1,39.1,21.615Zm.875-12.633a2.691,2.691,0,0,0-2.5,1.429,7.575,7.575,0,0,0-.806,3.725v.287a5.979,5.979,0,0,0,.787,3.268,2.763,2.763,0,0,0,2.495,1.217,3.348,3.348,0,0,0,1.784-.451,3.453,3.453,0,0,0,1.2-1.285V10.719a3.526,3.526,0,0,0-1.2-1.279A3.271,3.271,0,0,0,39.976,8.982Zm-15.7,12.633a6.276,6.276,0,0,1-4.99-2.105,8.086,8.086,0,0,1-1.8-5.428V13.8a8.1,8.1,0,0,1,1.8-5.414,6.252,6.252,0,0,1,4.963-2.12,6.227,6.227,0,0,1,4.99,2.12A8.024,8.024,0,0,1,31.063,13.8v.287a8.064,8.064,0,0,1-1.819,5.441A6.235,6.235,0,0,1,24.281,21.615ZM24.254,8.928a2.871,2.871,0,0,0-2.6,1.381,6.6,6.6,0,0,0-.847,3.487v.287a6.644,6.644,0,0,0,.847,3.527,2.87,2.87,0,0,0,2.625,1.354,2.883,2.883,0,0,0,2.6-1.354,6.467,6.467,0,0,0,.876-3.527V13.8a6.384,6.384,0,0,0-.876-3.487A2.893,2.893,0,0,0,24.254,8.928ZM7.848,21.615a7.414,7.414,0,0,1-5.667-2.344,8.494,8.494,0,0,1-2.181-6V9.489a8.587,8.587,0,0,1,2.154-6,7.259,7.259,0,0,1,5.6-2.358,7.97,7.97,0,0,1,5.557,1.852A6.284,6.284,0,0,1,15.286,7.97l-.028.082H12.045a4.327,4.327,0,0,0-1.086-3.13A4.288,4.288,0,0,0,7.752,3.8,3.832,3.832,0,0,0,4.519,5.414a6.633,6.633,0,0,0-1.2,4.046v3.814a6.582,6.582,0,0,0,1.224,4.074,3.944,3.944,0,0,0,3.3,1.614,4.165,4.165,0,0,0,3.13-1.108,4.348,4.348,0,0,0,1.067-3.13h3.2l.027.082a6.294,6.294,0,0,1-1.962,4.915A7.687,7.687,0,0,1,7.848,21.615Z" transform="translate(53.449 6.672)" fill="#fff"/><path d="M41.6,8.778a4,4,0,0,1-2.344-.707,2.178,2.178,0,0,1-.978-1.937l.012-.035h1.371A1.34,1.34,0,0,0,40.2,7.263a2.372,2.372,0,0,0,1.4.383,2.067,2.067,0,0,0,1.23-.319,1.015,1.015,0,0,0,.439-.864,1.1,1.1,0,0,0-.4-.873,3.739,3.739,0,0,0-1.4-.609,5.932,5.932,0,0,1-2.2-.994,1.986,1.986,0,0,1-.771-1.62,2.078,2.078,0,0,1,.853-1.7A3.474,3.474,0,0,1,41.56,0a3.292,3.292,0,0,1,2.259.756,2.264,2.264,0,0,1,.824,1.816l-.012.035H43.266a1.38,1.38,0,0,0-.445-1.064,1.83,1.83,0,0,0-1.272-.407,1.864,1.864,0,0,0-1.2.34,1.083,1.083,0,0,0-.419.878.967.967,0,0,0,.454.809,5.072,5.072,0,0,0,1.5.609,5.016,5.016,0,0,1,2.092,1.02,2.148,2.148,0,0,1,.715,1.658,2.01,2.01,0,0,1-.852,1.7A3.7,3.7,0,0,1,41.6,8.778Zm19.846-.123H60.024V1.265H57.445V.123h6.58V1.265H61.448V8.653Zm-36,0H19.694V.123h5.712V1.265H21.118V3.674H24.85V4.817H21.118v2.7h4.33V8.653ZM4,8.654H2.579V1.265H0V.123H6.58V1.265H4V8.653Z" transform="translate(53.182 34.346)" fill="#fff" opacity="0.5"/></svg>