<svg xmlns="http://www.w3.org/2000/svg" width="100%" height="100%" viewBox="0 0 49.766 32.754">
  <path id="icon_solid_speach-marks" data-name="icon/solid/speach-marks" d="M41.324,32.754a10.165,10.165,0,0,1-7.554-3.618,12.785,12.785,0,0,1-3.364-9.013,19.244,19.244,0,0,1,1.063-6.371A20.8,20.8,0,0,1,39.8,3.277,26.46,26.46,0,0,1,46.719.191V2.6c-4.254,2.443-7.095,4.664-8.443,6.6a11.759,11.759,0,0,0-2.031,6.855,4.287,4.287,0,0,0,.7,2.666,1.928,1.928,0,0,0,1.46.889,6.885,6.885,0,0,0,2.1-.508,8.161,8.161,0,0,1,2.793-.508,6.346,6.346,0,0,1,4.539,1.873,6.178,6.178,0,0,1,1.936,4.6,7.184,7.184,0,0,1-2.444,5.4A8.492,8.492,0,0,1,41.324,32.754Zm-30.215-.063a10.348,10.348,0,0,1-7.681-3.682A12.876,12.876,0,0,1,0,19.931,18.211,18.211,0,0,1,1.055,13.8a20.939,20.939,0,0,1,3.166-5.7A21.339,21.339,0,0,1,9.387,3.325,29.039,29.039,0,0,1,16.44,0V2.6c-3.706,1.937-6.4,3.987-8,6.094A11.245,11.245,0,0,0,6.03,15.615a5.279,5.279,0,0,0,.635,3.047,1.654,1.654,0,0,0,1.4.888,7.384,7.384,0,0,0,2.222-.476,7.967,7.967,0,0,1,2.539-.476,6.242,6.242,0,0,1,4.539,1.936A6.462,6.462,0,0,1,19.3,25.264,6.943,6.943,0,0,1,16.948,30.5,8.266,8.266,0,0,1,11.109,32.691Z" transform="translate(0 0)" fill="#f56a75"/>
</svg>
